# xmcd
#
# Track frame offsets:
#	182
#	16732
#	31507
#	46282
#	60982
#	79882
#	96157
#	112957
#	129532
#	144307
#	159232
#	173932
#	192832
#	209182
#	226132
#	242557
#	256432
#	271657
#
# Disc length: 3792 seconds
#
# Revision: 0
# Processed by: cddbd v1.5.2PL0 Copyright (c) Steve Scherf et al.
# Submitted via: dBpowerAMP V4.0
#
DISCID=e20ece12
DTITLE=Various Artist - All Time Greatesat Line Dancing
DYEAR=1900
DGENRE=Country
TTITLE0=Terry Hogan - Elvira (instructor voice over)
TTITLE1=Terry Hogan -  Boot Scootin' Boogie (instructor voice over)
TTITLE2=Terry Hogan - The Outback Club (instructor voice over)
TTITLE3=Terry Hogan - Queen Of Hearts (instructor voice over)
TTITLE4=Terry Hogan - The Dance (instructor voice over)
TTITLE5=Terry Hogan - Way Out West (instructor voice over)
TTITLE6=Terry Hogan - Honky Tonk Attitude (instructor voice over)
TTITLE7=Terry Hogan - Elvira (music only)
TTITLE8=Terry Hogan - Boot Scootin' Club (music only)
TTITLE9=Terry Hogan - The Outback Club (music only)
TTITLE10=Terry Hogan - Queen Of Hearts (music only)
TTITLE11=Terry Hogan - The Dance (music only)
TTITLE12=Terry Hogan - Way Out West (music only)
TTITLE13=Terry Hogan - Honky Tonk Attitude (music only)
TTITLE14=Terry Hogan - I Feel Lucky
TTITLE15=Terry Hogan - Guitars Cadillacs etc
TTITLE16=Terry Hogan - Achy Breaky Heart
TTITLE17=Terry Hogan - If The Devil Danced
EXTD=
EXTT0=
EXTT1=
EXTT2=
EXTT3=
EXTT4=
EXTT5=
EXTT6=
EXTT7=
EXTT8=
EXTT9=
EXTT10=
EXTT11=
EXTT12=
EXTT13=
EXTT14=
EXTT15=
EXTT16=
EXTT17=
PLAYORDER=
